<svg width="24" height="21" viewBox="0 0 24 21" fill="none" xmlns="http://www.w3.org/2000/svg">
<path fill-rule="evenodd" clip-rule="evenodd" d="M7.22524 10.9207C7.22524 8.33565 9.36312 6.24016 12.0003 6.24016C14.6376 6.24016 16.7754 8.33565 16.7754 10.9207C16.7754 13.5057 14.6376 15.6012 12.0003 15.6012C9.36312 15.6012 7.22524 13.5057 7.22524 10.9207ZM12.0003 8.11236C10.4181 8.11236 9.13528 9.36973 9.13528 10.9207C9.13528 12.4716 10.4181 13.729 12.0003 13.729C13.5826 13.729 14.8654 12.4716 14.8654 10.9207C14.8654 9.36973 13.5826 8.11236 12.0003 8.11236Z" fill="white"/>
<path fill-rule="evenodd" clip-rule="evenodd" d="M10.2378 1.8722C8.90691 1.8722 7.82802 2.92972 7.82802 4.23424C7.82802 5.06544 7.17706 5.75743 6.33183 5.82472L3.49276 6.05073C2.93531 6.0951 2.47687 6.49915 2.37283 7.03778C1.80141 9.99581 1.7588 13.0288 2.24691 16.0012L2.37074 16.7553C2.48769 17.4675 3.08571 18.0093 3.81922 18.0678L6.29251 18.2646C10.0912 18.567 13.9087 18.567 17.7074 18.2646L20.1806 18.0678C20.9142 18.0093 21.5122 17.4675 21.6292 16.7553L21.753 16.0012C22.2411 13.0288 22.1985 9.99581 21.6271 7.03778C21.523 6.49915 21.0646 6.0951 20.5071 6.05073L17.6681 5.82472C16.8228 5.75745 16.1719 5.06544 16.1719 4.23424C16.1719 2.92972 15.0929 1.8722 13.7622 1.8722H10.2378ZM5.92573 3.97868C6.06053 1.75917 7.93957 0 10.2378 0H13.7622C16.0603 0 17.9394 1.75917 18.0741 3.97868L20.6617 4.18467C22.0764 4.29728 23.2398 5.32262 23.5037 6.68948C24.1163 9.86064 24.1621 13.1122 23.6388 16.2986L23.5149 17.0528C23.2582 18.6162 21.9455 19.8057 20.3352 19.9338L17.862 20.1307C13.9604 20.4412 10.0395 20.4412 6.13789 20.1307L3.66461 19.9338C2.05442 19.8057 0.741694 18.6162 0.484972 17.0528L0.361138 16.2986C-0.162123 13.1122 -0.116448 9.86064 0.496127 6.68948C0.76017 5.32262 1.92355 4.29728 3.33815 4.18467L5.92573 3.97868Z" fill="white"/>
</svg>
