<svg width="15" height="15" viewBox="0 0 15 15" fill="none" xmlns="http://www.w3.org/2000/svg">
<path fill-rule="evenodd" clip-rule="evenodd" d="M3.38721 3.75463C3.38721 1.681 5.22862 0 7.50011 0C9.77159 0 11.613 1.681 11.613 3.75463C11.613 5.82825 9.77159 7.50925 7.50011 7.50925C5.22862 7.50925 3.38721 5.82825 3.38721 3.75463ZM7.50011 1.32516C6.0303 1.32516 4.83882 2.41287 4.83882 3.75463C4.83882 5.09638 6.0303 6.18409 7.50011 6.18409C8.96992 6.18409 10.1614 5.09638 10.1614 3.75463C10.1614 2.41287 8.96992 1.32516 7.50011 1.32516Z" fill="black"/>
<path fill-rule="evenodd" clip-rule="evenodd" d="M3.62903 10.1596C2.42648 10.1596 1.45161 11.0496 1.45161 12.1474V13.1972C1.45161 13.2132 1.4643 13.2268 1.48158 13.2293C5.46747 13.8234 9.53255 13.8234 13.5184 13.2293C13.5357 13.2268 13.5484 13.2132 13.5484 13.1972V12.1474C13.5484 11.0496 12.5735 10.1596 11.371 10.1596H11.0411C11.0156 10.1596 10.9903 10.1633 10.966 10.1705L10.1284 10.4203C8.42052 10.9293 6.57948 10.9293 4.87159 10.4203L4.034 10.1705C4.00976 10.1633 3.98441 10.1596 3.95891 10.1596H3.62903ZM0 12.1474C0 10.3177 1.62477 8.83447 3.62903 8.83447H3.95891C4.13744 8.83447 4.31486 8.86027 4.48458 8.9108L5.32218 9.16055C6.73732 9.58231 8.26268 9.58231 9.67781 9.16055L10.5154 8.9108C10.6851 8.86027 10.8625 8.83447 11.0411 8.83447H11.371C13.3753 8.83447 15 10.3177 15 12.1474V13.1972C15 13.8626 14.4717 14.4299 13.7523 14.5372C9.61152 15.1543 5.38848 15.1543 1.24768 14.5372C0.528271 14.4299 0 13.8626 0 13.1972V12.1474Z" fill="black"/>
</svg>
