<svg width="26" height="18" viewBox="0 0 26 18" fill="none" xmlns="http://www.w3.org/2000/svg">
<path d="M10.5606 2.42589C11.1464 1.87094 11.1464 0.971164 10.5606 0.416213C9.9748 -0.138738 9.0252 -0.138738 8.43934 0.416213L0.43934 7.99524C0.14644 8.27263 0 8.63642 0 9.00002C0 9.19272 0.0404801 9.37651 0.11382 9.544C0.18702 9.7115 0.29552 9.86857 0.43934 10.0048L8.43934 17.5838C9.0252 18.1387 9.9748 18.1387 10.5606 17.5838C11.1464 17.0288 11.1464 16.1292 10.5606 15.5742L5.12132 10.4211H24.5C25.3284 10.4211 26 9.78482 26 9.00002C26 8.21522 25.3284 7.57896 24.5 7.57896H5.12132L10.5606 2.42589Z" fill="#261C12"/>
</svg>
