<svg width="15" height="19" viewBox="0 0 15 19" fill="none" xmlns="http://www.w3.org/2000/svg">
<path d="M5.99609 13.4864C5.99609 12.6723 6.66933 12.0122 7.49975 12.0122C8.33017 12.0122 9.0034 12.6723 9.0034 13.4864C9.0034 14.3006 8.33017 14.9606 7.49975 14.9606C6.66933 14.9606 5.99609 14.3006 5.99609 13.4864Z" fill="black"/>
<path fill-rule="evenodd" clip-rule="evenodd" d="M3.11096 8.17679L2.79475 5.38668C2.75422 5.02896 2.75422 4.66794 2.79475 4.31021L2.81758 4.10884C3.05965 1.97283 4.77242 0.282752 6.94954 0.0316364C7.31523 -0.0105455 7.68473 -0.0105455 8.05041 0.0316364C10.2275 0.282752 11.9403 1.97284 12.1824 4.10885L12.2051 4.31021C12.2457 4.66794 12.2457 5.02896 12.2051 5.38667L11.8889 8.17679L12.5772 8.23065C13.6625 8.31566 14.5488 9.11557 14.7248 10.169C15.0917 12.3662 15.0917 14.6073 14.7248 16.8045C14.5488 17.858 13.6625 18.6579 12.5772 18.7428L11.0775 18.8602C8.69628 19.0466 6.30377 19.0466 3.92256 18.8602L2.42279 18.7428C1.33742 18.6579 0.451169 17.858 0.275221 16.8045C-0.0917404 14.6073 -0.0917404 12.3662 0.275221 10.169C0.451169 9.11557 1.33742 8.31566 2.42279 8.23065L3.11096 8.17679ZM7.12517 1.49575C7.37417 1.46703 7.62578 1.46703 7.87469 1.49575C9.35699 1.6667 10.523 2.81738 10.6879 4.27164L10.7107 4.47302C10.7389 4.72253 10.7389 4.97435 10.7107 5.22388L10.3888 8.06466C8.46492 7.94318 6.53503 7.94318 4.61116 8.06466L4.28921 5.22388C4.26094 4.97435 4.26094 4.72253 4.28921 4.47302L4.31203 4.27164C4.47685 2.81738 5.64296 1.6667 7.12517 1.49575ZM10.9578 9.58279C8.65629 9.40274 6.34377 9.40274 4.04222 9.58279L2.54245 9.70024C2.14656 9.73119 1.82329 10.023 1.75912 10.4073C1.4185 12.4467 1.4185 14.5269 1.75912 16.5663C1.82329 16.9506 2.14656 17.2424 2.54245 17.2733L4.04222 17.3907C6.34377 17.5708 8.65629 17.5708 10.9578 17.3907L12.4575 17.2733C12.8535 17.2424 13.1767 16.9506 13.2409 16.5663C13.5816 14.5269 13.5816 12.4467 13.2409 10.4073C13.1767 10.023 12.8535 9.73119 12.4575 9.70024L10.9578 9.58279Z" fill="black"/>
</svg>
