<svg width="15" height="19" viewBox="0 0 15 19" fill="none" xmlns="http://www.w3.org/2000/svg">
<path fill-rule="evenodd" clip-rule="evenodd" d="M3.31152 7.71514C3.31152 5.40202 5.18668 3.52686 7.49981 3.52686C9.81289 3.52686 11.6881 5.40202 11.6881 7.71514C11.6881 10.0283 9.81289 11.9034 7.49981 11.9034C5.18668 11.9034 3.31152 10.0283 3.31152 7.71514ZM7.49981 4.84947C5.91717 4.84947 4.63414 6.13247 4.63414 7.71514C4.63414 9.29778 5.91717 10.5808 7.49981 10.5808C9.08245 10.5808 10.3655 9.29778 10.3655 7.71514C10.3655 6.13247 9.08245 4.84947 7.49981 4.84947Z" fill="black"/>
<path fill-rule="evenodd" clip-rule="evenodd" d="M0.026671 6.70729C0.339099 2.91702 3.50645 0 7.30955 0H7.69047C11.4936 0 14.6609 2.91702 14.9733 6.70729C15.1412 8.74337 14.5123 10.7651 13.219 12.3467L8.9928 17.5153C8.22128 18.4589 6.77874 18.4589 6.00722 17.5153L1.78099 12.3467C0.48777 10.7651 -0.14116 8.74337 0.026671 6.70729ZM7.30955 1.32262C4.19479 1.32262 1.60069 3.71168 1.34482 6.81595C1.20513 8.5105 1.72858 10.1931 2.80489 11.5095L7.0311 16.6781C7.27349 16.9744 7.72653 16.9744 7.96892 16.6781L12.1951 11.5095C13.2715 10.1931 13.7949 8.5105 13.6552 6.81595C13.3993 3.71168 10.8052 1.32262 7.69047 1.32262H7.30955Z" fill="black"/>
</svg>
