<svg width="30" height="30" viewBox="0 0 30 30" fill="none" xmlns="http://www.w3.org/2000/svg">
<path d="M15 0C11.0218 0 7.20644 1.58035 4.3934 4.3934C1.58035 7.20644 0 11.0218 0 15C0 18.9782 1.58035 22.7936 4.3934 25.6066C7.20644 28.4196 11.0218 30 15 30C18.9782 30 22.7936 28.4196 25.6066 25.6066C28.4196 22.7936 30 18.9782 30 15C30 11.0218 28.4196 7.20644 25.6066 4.3934C22.7936 1.58035 18.9782 0 15 0Z" fill="#157EDE"/>
<path d="M17.0304 18.9758H20.9123L21.5218 15.0324H17.0297V12.8771C17.0297 11.239 17.5649 9.78632 19.0973 9.78632H21.5597V6.34501C21.127 6.28659 20.212 6.15869 18.4831 6.15869C14.8728 6.15869 12.7562 8.06527 12.7562 12.409V15.0324H9.04492V18.9758H12.7562V29.8145C13.4912 29.925 14.2357 30 14.9999 30C15.6907 30 16.3649 29.9368 17.0304 29.8468V18.9758Z" fill="white"/>
</svg>
