<svg width="15" height="15" viewBox="0 0 15 15" fill="none" xmlns="http://www.w3.org/2000/svg">
<path fill-rule="evenodd" clip-rule="evenodd" d="M1.28546 7.5C1.28546 4.06795 4.06712 1.28571 7.49846 1.28571C10.9299 1.28571 13.7115 4.06795 13.7115 7.5C13.7115 7.52889 13.7135 7.55726 13.7172 7.58511C13.7143 7.61203 13.7133 7.63937 13.7139 7.66706C13.7192 7.88529 13.6913 8.22377 13.6196 8.54734C13.5416 8.8998 13.4398 9.10234 13.3804 9.16483C13.1216 9.43637 12.7657 9.59391 12.3908 9.603C12.0159 9.612 11.6527 9.47169 11.3812 9.21291C11.2037 9.04371 11.1528 8.7954 11.139 8.21837L11.04 4.10573C11.0315 3.75079 10.7369 3.46998 10.382 3.47853C10.0271 3.48707 9.74638 3.78172 9.75495 4.13667L9.76918 4.73036C9.15122 4.2229 8.3604 3.9183 7.49846 3.9183C5.5208 3.9183 3.91757 5.52185 3.91757 7.49991C3.91757 9.47803 5.5208 11.0816 7.49846 11.0816C8.59059 11.0816 9.56856 10.5926 10.2253 9.82149C10.299 9.9336 10.3877 10.0419 10.4944 10.1437C11.0127 10.6377 11.706 10.9055 12.4217 10.8883C13.1374 10.8711 13.817 10.5702 14.311 10.0518C14.6278 9.71931 14.7881 9.21617 14.8747 8.8254C14.9676 8.40566 15.0069 7.96337 14.999 7.63611C14.9984 7.61254 14.9966 7.58931 14.9936 7.56643C14.9958 7.54457 14.997 7.52246 14.997 7.5C14.997 3.35787 11.6398 0 7.49846 0C3.35719 0 0 3.35787 0 7.5C0 11.6421 3.35719 15 7.49846 15C9.24934 15 10.8616 14.3991 12.1378 13.3926C12.4165 13.1727 12.4644 12.7685 12.2445 12.4897C12.0248 12.2109 11.6207 12.1631 11.3419 12.383C10.2843 13.217 8.95034 13.7143 7.49846 13.7143C4.06712 13.7143 1.28546 10.9321 1.28546 7.5ZM7.49846 5.20401C6.23075 5.20401 5.20302 6.23194 5.20302 7.49991C5.20302 8.76797 6.23075 9.79586 7.49846 9.79586C8.76627 9.79586 9.79395 8.76797 9.79395 7.49991C9.79395 6.23194 8.76627 5.20401 7.49846 5.20401Z" fill="black"/>
</svg>
