<svg width="15" height="15" viewBox="0 0 15 15" fill="none" xmlns="http://www.w3.org/2000/svg">
<path fill-rule="evenodd" clip-rule="evenodd" d="M1.93204 5.82818C3.46271 9.1631 6.1865 11.8145 9.57246 13.2512L9.58317 13.2557L10.2373 13.5474C11.0703 13.9188 12.0494 13.655 12.5834 12.9155L13.6748 11.4041C13.7414 11.3119 13.7242 11.1835 13.6357 11.1119L11.7304 9.57398C11.6357 9.49755 11.4964 9.51537 11.4239 9.61314L10.6824 10.6143C10.5023 10.8575 10.1771 10.942 9.90158 10.8173C7.36971 9.67073 5.33512 7.63499 4.18931 5.10167C4.0646 4.82594 4.14904 4.50054 4.39205 4.32035L5.39265 3.57839C5.49043 3.50589 5.50823 3.36654 5.43181 3.27177L3.89453 1.36513C3.82308 1.27651 3.69484 1.25931 3.60258 1.32595L2.08392 2.42292C1.33989 2.96035 1.07787 3.94822 1.45765 4.78408L1.93153 5.82707C1.93171 5.82744 1.93188 5.82781 1.93204 5.82818ZM9.06556 14.4323C5.38646 12.8696 2.42727 9.98787 0.764103 6.36336L0.763101 6.36121L0.288225 5.31604C-0.344742 3.92293 0.0919546 2.27648 1.33202 1.38076L2.85067 0.283788C3.4965 -0.182716 4.39421 -0.0622273 4.89434 0.558073L6.43161 2.46472C6.96652 3.1281 6.84191 4.10359 6.15747 4.61108L5.58411 5.03623C6.5527 6.91657 8.08763 8.45247 9.96692 9.42154L10.3919 8.84785C10.899 8.1631 11.874 8.03842 12.537 8.57364L14.4422 10.1115C15.0624 10.6121 15.1827 11.5107 14.716 12.1569L13.6246 13.6682C12.7346 14.9009 11.1028 15.3405 9.71454 14.7215L9.06556 14.4323Z" fill="#261C12"/>
</svg>
