<svg width="15" height="16" viewBox="0 0 15 16" fill="none" xmlns="http://www.w3.org/2000/svg">
<path fill-rule="evenodd" clip-rule="evenodd" d="M8.89911 1.85496C8.11729 1.12628 6.88271 1.12628 6.10088 1.85496L1.9457 5.7274C1.8439 5.82225 1.77542 5.94585 1.74996 6.08063C1.25228 8.71663 1.21555 11.4152 1.6413 14.0631L1.74236 14.6915H4.41562V9.27342C4.41562 8.91203 4.7172 8.6192 5.08922 8.6192H9.91077C10.2828 8.6192 10.5844 8.91203 10.5844 9.27342V14.6915H13.2577L13.3587 14.0631C13.7844 11.4152 13.7477 8.71663 13.25 6.08063C13.2246 5.94585 13.1561 5.82225 13.0543 5.7274L8.89911 1.85496ZM5.16811 0.910853C6.47128 -0.303618 8.52872 -0.303618 9.83191 0.910853L13.987 4.78329C14.2929 5.06835 14.4987 5.43968 14.5751 5.84467C15.1001 8.62522 15.1389 11.4719 14.6897 14.2649L14.5274 15.2746C14.4603 15.6922 14.09 16 13.6548 16H9.91077C9.53876 16 9.23717 15.7071 9.23717 15.3458V9.92765H5.76283V15.3458C5.76283 15.7071 5.46123 16 5.08922 16H1.34514C0.910011 16 0.539719 15.6922 0.472583 15.2746L0.310237 14.2649C-0.138875 11.4719 -0.100121 8.62522 0.424865 5.84467C0.501324 5.43968 0.707069 5.06835 1.01295 4.78329L5.16811 0.910853Z" fill="black"/>
</svg>
