<svg width="30" height="30" viewBox="0 0 30 30" fill="none" xmlns="http://www.w3.org/2000/svg">
<path d="M26.7162 20.8501C26.0694 22.2868 25.7577 22.929 24.9256 24.197C23.7608 25.9688 22.1178 28.1813 20.0881 28.1954C18.2811 28.2118 17.8147 27.0165 15.3608 27.0376C12.9092 27.0493 12.3983 28.2188 10.5889 28.2001C8.55687 28.1813 7.00297 26.1892 5.83812 24.4196C2.58031 19.4579 2.23578 13.6407 4.24906 10.547C5.67406 8.35322 7.9264 7.06416 10.0428 7.06416C12.1991 7.06416 13.5537 8.24775 15.335 8.24775C17.0647 8.24775 18.117 7.06182 20.6108 7.06182C22.4952 7.06182 24.4873 8.08838 25.9123 9.86025C21.253 12.4149 22.01 19.0688 26.7162 20.8501ZM18.717 5.08135C19.6241 3.9165 20.3131 2.27354 20.0623 0.600098C18.5834 0.700879 16.8537 1.64541 15.8436 2.86885C14.9272 3.98447 14.1678 5.63916 14.4631 7.23994C16.078 7.2915 17.7491 6.32822 18.717 5.08135Z" fill="black"/>
</svg>
